<svg width="60" height="108" viewBox="0 0 60 108" fill="none" xmlns="http://www.w3.org/2000/svg">
<path d="M57 30C57 44.9117 44.9117 57 30 57C15.0883 57 3 44.9117 3 30C3 15.0883 15.0883 3 30 3C44.9117 3 57 15.0883 57 30Z" fill="#B270DE"/>
<path d="M30 105L24.8708 53H35L30 105Z" fill="#B270DE"/>
<path d="M30 1.5C45.7401 1.5 58.5 14.2599 58.5 30C58.5 43.6678 48.8783 55.0861 36.0391 57.8564L31.4932 105.144C31.4193 105.912 30.774 106.499 30.002 106.5C29.2299 106.501 28.5827 105.916 28.5068 105.147L23.8389 57.8301C11.0608 55.0139 1.5 43.6245 1.5 30C1.5 14.2599 14.2599 1.5 30 1.5Z" stroke="#613876" stroke-width="3" stroke-linejoin="round"/>
<circle cx="30" cy="30" r="19" fill="white"/>
<path d="M23.37 42C21.87 42 20.6 41.47 19.56 40.41C18.52 39.35 18 38.07 18 36.57C18 35.07 18.52 33.8 19.56 32.76C20.6 31.72 21.87 31.2 23.37 31.2C23.81 31.2 24.2352 31.25 24.6456 31.35C25.056 31.45 25.4408 31.59 25.8 31.77C26.08 31.19 26.23 30.59 26.25 29.97C26.27 29.35 26.16 28.75 25.92 28.17C25.54 28.37 25.14 28.52 24.72 28.62C24.3 28.72 23.86 28.77 23.4 28.77C21.9 28.77 20.6252 28.2452 19.5756 27.1956C18.526 26.146 18.0008 24.8704 18 23.3688C17.9992 21.8672 18.5244 20.5976 19.5756 19.56C20.6268 18.5224 21.9016 18.0024 23.4 18C24.8984 17.9976 26.1736 18.5176 27.2256 19.56C28.2776 20.6024 28.8024 21.8724 28.8 23.37C28.8 23.83 28.7452 24.27 28.6356 24.69C28.526 25.11 28.3708 25.51 28.17 25.89C28.75 26.13 29.35 26.2452 29.97 26.2356C30.59 26.226 31.19 26.0808 31.77 25.8C31.59 25.44 31.45 25.0552 31.35 24.6456C31.25 24.236 31.2 23.8108 31.2 23.37C31.2 21.87 31.72 20.6 32.76 19.56C33.8 18.52 35.07 18 36.57 18C38.07 18 39.35 18.52 40.41 19.56C41.47 20.6 42 21.87 42 23.37C42 24.87 41.47 26.15 40.41 27.21C39.35 28.27 38.07 28.8 36.57 28.8C36.09 28.8 35.6352 28.74 35.2056 28.62C34.776 28.5 34.3608 28.33 33.96 28.11C33.7 28.71 33.58 29.3252 33.6 29.9556C33.62 30.586 33.77 31.2108 34.05 31.83C34.43 31.63 34.83 31.4752 35.25 31.3656C35.67 31.256 36.11 31.2008 36.57 31.2C38.07 31.2 39.35 31.72 40.41 32.76C41.47 33.8 42 35.07 42 36.57C42 38.07 41.47 39.35 40.41 40.41C39.35 41.47 38.07 42 36.57 42C35.07 42 33.8 41.47 32.76 40.41C31.72 39.35 31.2 38.07 31.2 36.57C31.2 36.11 31.2552 35.67 31.3656 35.25C31.476 34.83 31.6308 34.43 31.83 34.05C31.21 33.77 30.5848 33.6152 29.9544 33.5856C29.324 33.556 28.7092 33.6708 28.11 33.93C28.33 34.33 28.5 34.75 28.62 35.19C28.74 35.63 28.8 36.09 28.8 36.57C28.8 38.07 28.27 39.35 27.21 40.41C26.15 41.47 24.87 42 23.37 42ZM36.57 26.4C37.41 26.4 38.1252 26.1048 38.7156 25.5144C39.306 24.924 39.6008 24.2092 39.6 23.37C39.5992 22.5308 39.3044 21.826 38.7156 21.2556C38.1268 20.6852 37.4116 20.4 36.57 20.4C35.7284 20.4 35.0232 20.6852 34.4544 21.2556C33.8856 21.826 33.6008 22.5308 33.6 23.37C33.6 23.53 33.6152 23.6952 33.6456 23.8656C33.676 24.036 33.7108 24.2008 33.75 24.36L35.55 22.56C35.79 22.32 36.07 22.2 36.39 22.2C36.71 22.2 36.99 22.32 37.23 22.56C37.47 22.8 37.59 23.08 37.59 23.4C37.59 23.72 37.47 24 37.23 24.24L35.37 26.13C35.55 26.23 35.74 26.3 35.94 26.34C36.14 26.38 36.35 26.4 36.57 26.4ZM23.4 26.37C23.6 26.37 23.79 26.35 23.97 26.31C24.15 26.27 24.32 26.22 24.48 26.16L22.56 24.24C22.32 24 22.2 23.72 22.2 23.4C22.2 23.08 22.32 22.8 22.56 22.56C22.8 22.32 23.08 22.2 23.4 22.2C23.72 22.2 24 22.32 24.24 22.56L26.19 24.48C26.25 24.32 26.3 24.1452 26.34 23.9556C26.38 23.766 26.4 23.5708 26.4 23.37C26.4 22.53 26.11 21.82 25.53 21.24C24.95 20.66 24.24 20.37 23.4 20.37C22.56 20.37 21.85 20.66 21.27 21.24C20.69 21.82 20.4 22.53 20.4 23.37C20.4 24.21 20.69 24.92 21.27 25.5C21.85 26.08 22.56 26.37 23.4 26.37ZM36.57 39.6C37.41 39.6 38.1248 39.3052 38.7144 38.7156C39.304 38.126 39.5992 37.4108 39.6 36.57C39.6008 35.7292 39.306 35.024 38.7156 34.4544C38.1252 33.8848 37.41 33.6 36.57 33.6C36.37 33.6 36.18 33.6152 36 33.6456C35.82 33.676 35.65 33.7208 35.49 33.78L37.47 35.76C37.71 36 37.83 36.28 37.83 36.6C37.83 36.92 37.71 37.2 37.47 37.44C37.21 37.68 36.92 37.8 36.6 37.8C36.28 37.8 36 37.68 35.76 37.44L33.81 35.49C33.75 35.65 33.7 35.82 33.66 36C33.62 36.18 33.6 36.37 33.6 36.57C33.6 37.41 33.8848 38.1252 34.4544 38.7156C35.024 39.306 35.7292 39.6008 36.57 39.6ZM23.37 39.6C24.21 39.6 24.9252 39.3052 25.5156 38.7156C26.106 38.126 26.4008 37.4108 26.4 36.57C26.4 36.35 26.38 36.1352 26.34 35.9256C26.3 35.716 26.23 35.5208 26.13 35.34L24.03 37.44C23.79 37.68 23.5048 37.8 23.1744 37.8C22.844 37.8 22.5592 37.68 22.32 37.44C22.0808 37.2 21.9608 36.92 21.96 36.6C21.9592 36.28 22.0792 36 22.32 35.76L24.33 33.75C24.17 33.71 24.01 33.6748 23.85 33.6444C23.69 33.614 23.53 33.5992 23.37 33.6C22.53 33.6 21.8248 33.8852 21.2544 34.4556C20.684 35.026 20.3992 35.7308 20.4 36.57C20.4008 37.4092 20.686 38.1244 21.2556 38.7156C21.8252 39.3068 22.53 39.6016 23.37 39.6ZM30 31.2C30.34 31.2 30.6252 31.0848 30.8556 30.8544C31.086 30.624 31.2008 30.3392 31.2 30C31.1992 29.6608 31.084 29.376 30.8544 29.1456C30.6248 28.9152 30.34 28.8 30 28.8C29.66 28.8 29.3752 28.9152 29.1456 29.1456C28.916 29.376 28.8008 29.6608 28.8 30C28.7992 30.3392 28.9144 30.6244 29.1456 30.8556C29.3768 31.0868 29.6616 31.2016 30 31.2Z" fill="#613876"/>
</svg>
