<svg width="144" height="34" viewBox="0 0 144 34" fill="none" xmlns="http://www.w3.org/2000/svg">
<path d="M7.6075 34C5.4825 34 3.68333 33.2492 2.21 31.7475C0.736668 30.2458 1.29278e-06 28.4325 1.29278e-06 26.3075C1.29278e-06 24.1825 0.736668 22.3833 2.21 20.91C3.68333 19.4367 5.4825 18.7 7.6075 18.7C8.23084 18.7 8.8332 18.7708 9.4146 18.9125C9.996 19.0542 10.5411 19.2525 11.05 19.5075C11.4467 18.6858 11.6592 17.8358 11.6875 16.9575C11.7158 16.0792 11.56 15.2292 11.22 14.4075C10.6817 14.6908 10.115 14.9033 9.52 15.045C8.925 15.1867 8.30167 15.2575 7.65 15.2575C5.525 15.2575 3.71903 14.514 2.2321 13.0271C0.745168 11.5402 0.00113463 9.73307 1.29278e-06 7.60581C-0.00113204 5.47854 0.742901 3.67994 2.2321 2.21001C3.7213 0.740078 5.52727 0.00341171 7.65 1.17152e-05C9.77274 -0.00338828 11.5793 0.733278 13.0696 2.21001C14.5599 3.68674 15.3034 5.48591 15.3 7.60751C15.3 8.25917 15.2224 8.88251 15.0671 9.47751C14.9118 10.0725 14.692 10.6392 14.4075 11.1775C15.2292 11.5175 16.0792 11.6807 16.9575 11.6671C17.8358 11.6535 18.6858 11.4478 19.5075 11.05C19.2525 10.54 19.0542 9.99487 18.9125 9.41461C18.7708 8.83434 18.7 8.23197 18.7 7.60751C18.7 5.48251 19.4367 3.68334 20.91 2.21001C22.3833 0.736678 24.1825 1.17152e-05 26.3075 1.17152e-05C28.4325 1.17152e-05 30.2458 0.736678 31.7475 2.21001C33.2492 3.68334 34 5.48251 34 7.60751C34 9.73251 33.2492 11.5458 31.7475 13.0475C30.2458 14.5492 28.4325 15.3 26.3075 15.3C25.6275 15.3 24.9832 15.215 24.3746 15.045C23.766 14.875 23.1778 14.6342 22.61 14.3225C22.2417 15.1725 22.0717 16.044 22.1 16.9371C22.1283 17.8302 22.3408 18.7153 22.7375 19.5925C23.2758 19.3092 23.8425 19.0899 24.4375 18.9346C25.0325 18.7793 25.6558 18.7011 26.3075 18.7C28.4325 18.7 30.2458 19.4367 31.7475 20.91C33.2492 22.3833 34 24.1825 34 26.3075C34 28.4325 33.2492 30.2458 31.7475 31.7475C30.2458 33.2492 28.4325 34 26.3075 34C24.1825 34 22.3833 33.2492 20.91 31.7475C19.4367 30.2458 18.7 28.4325 18.7 26.3075C18.7 25.6558 18.7782 25.0325 18.9346 24.4375C19.091 23.8425 19.3103 23.2758 19.5925 22.7375C18.7142 22.3408 17.8285 22.1215 16.9354 22.0796C16.0423 22.0377 15.1714 22.2003 14.3225 22.5675C14.6342 23.1342 14.875 23.7292 15.045 24.3525C15.215 24.9758 15.3 25.6275 15.3 26.3075C15.3 28.4325 14.5492 30.2458 13.0475 31.7475C11.5458 33.2492 9.7325 34 7.6075 34ZM26.3075 11.9C27.4975 11.9 28.5107 11.4818 29.3471 10.6454C30.1835 9.80901 30.6011 8.79637 30.6 7.60751C30.5989 6.41864 30.1812 5.42018 29.3471 4.61211C28.513 3.80404 27.4998 3.40001 26.3075 3.40001C25.1152 3.40001 24.1162 3.80404 23.3104 4.61211C22.5046 5.42018 22.1011 6.41864 22.1 7.60751C22.1 7.83417 22.1215 8.06821 22.1646 8.30961C22.2077 8.55101 22.257 8.78447 22.3125 9.01001L24.8625 6.46001C25.2025 6.12001 25.5992 5.95001 26.0525 5.95001C26.5058 5.95001 26.9025 6.12001 27.2425 6.46001C27.5825 6.80001 27.7525 7.19668 27.7525 7.65001C27.7525 8.10334 27.5825 8.50001 27.2425 8.84001L24.6075 11.5175C24.8625 11.6592 25.1317 11.7583 25.415 11.815C25.6983 11.8717 25.9958 11.9 26.3075 11.9ZM7.65 11.8575C7.93334 11.8575 8.2025 11.8292 8.4575 11.7725C8.7125 11.7158 8.95334 11.645 9.18 11.56L6.46 8.84001C6.12 8.50001 5.95 8.10334 5.95 7.65001C5.95 7.19668 6.12 6.80001 6.46 6.46001C6.8 6.12001 7.19667 5.95001 7.65 5.95001C8.10334 5.95001 8.5 6.12001 8.84 6.46001L11.6025 9.18001C11.6875 8.95334 11.7583 8.70571 11.815 8.43711C11.8717 8.16851 11.9 7.89197 11.9 7.60751C11.9 6.41751 11.4892 5.41168 10.6675 4.59001C9.84583 3.76834 8.84 3.35751 7.65 3.35751C6.46 3.35751 5.45417 3.76834 4.6325 4.59001C3.81083 5.41168 3.4 6.41751 3.4 7.60751C3.4 8.79751 3.81083 9.80334 4.6325 10.625C5.45417 11.4467 6.46 11.8575 7.65 11.8575ZM26.3075 30.6C27.4975 30.6 28.5101 30.1824 29.3454 29.3471C30.1807 28.5118 30.5989 27.4986 30.6 26.3075C30.6011 25.1164 30.1835 24.1173 29.3471 23.3104C28.5107 22.5035 27.4975 22.1 26.3075 22.1C26.0242 22.1 25.755 22.1215 25.5 22.1646C25.245 22.2077 25.0042 22.2711 24.7775 22.355L27.5825 25.16C27.9225 25.5 28.0925 25.8967 28.0925 26.35C28.0925 26.8033 27.9225 27.2 27.5825 27.54C27.2142 27.88 26.8033 28.05 26.35 28.05C25.8967 28.05 25.5 27.88 25.16 27.54L22.3975 24.7775C22.3125 25.0042 22.2417 25.245 22.185 25.5C22.1283 25.755 22.1 26.0242 22.1 26.3075C22.1 27.4975 22.5035 28.5107 23.3104 29.3471C24.1173 30.1835 25.1164 30.6011 26.3075 30.6ZM7.6075 30.6C8.7975 30.6 9.8107 30.1824 10.6471 29.3471C11.4835 28.5118 11.9011 27.4986 11.9 26.3075C11.9 25.9958 11.8717 25.6915 11.815 25.3946C11.7583 25.0977 11.6592 24.8211 11.5175 24.565L8.5425 27.54C8.2025 27.88 7.79847 28.05 7.3304 28.05C6.86233 28.05 6.45887 27.88 6.12 27.54C5.78113 27.2 5.61114 26.8033 5.61 26.35C5.60887 25.8967 5.77887 25.5 6.12 25.16L8.9675 22.3125C8.74084 22.2558 8.51417 22.206 8.2875 22.1629C8.06084 22.1198 7.83417 22.0989 7.6075 22.1C6.4175 22.1 5.41847 22.504 4.6104 23.3121C3.80233 24.1202 3.39887 25.1186 3.4 26.3075C3.40113 27.4964 3.80517 28.5096 4.6121 29.3471C5.41903 30.1846 6.4175 30.6023 7.6075 30.6ZM17 18.7C17.4817 18.7 17.8857 18.5368 18.2121 18.2104C18.5385 17.884 18.7011 17.4805 18.7 17C18.6989 16.5195 18.5357 16.116 18.2104 15.7896C17.8851 15.4632 17.4817 15.3 17 15.3C16.5183 15.3 16.1149 15.4632 15.7896 15.7896C15.4643 16.116 15.3011 16.5195 15.3 17C15.2989 17.4805 15.4621 17.8846 15.7896 18.2121C16.1171 18.5396 16.5206 18.7023 17 18.7Z" fill="black"/>
<path d="M42.1875 28.8438L46.1562 6.85938C46.1771 6.77604 46.2292 6.73438 46.3125 6.73438H50.9531C51.0365 6.73438 51.0885 6.77604 51.1094 6.85938L54.9219 28.8438C54.9323 28.9479 54.8906 29 54.7969 29H51.25C51.1458 29 51.0885 28.9479 51.0781 28.8438L50.7344 26.5H46.375L46.0312 28.8438C46.0208 28.9479 45.9688 29 45.875 29H42.3125C42.2292 29 42.1875 28.9479 42.1875 28.8438ZM48.4531 14.0938L47.0156 23.0781H50.0938L48.7812 14.0938L48.5938 12.9062L48.4531 14.0938ZM67.3906 29H57.0469C56.9635 29 56.9219 28.9479 56.9219 28.8438L56.9531 6.89062C56.9531 6.78646 57.0052 6.73438 57.1094 6.73438H60.6719C60.776 6.73438 60.8281 6.78646 60.8281 6.89062L60.7969 25.0625H67.3906C67.4948 25.0625 67.5469 25.1146 67.5469 25.2188V28.8438C67.5469 28.9479 67.4948 29 67.3906 29ZM76.4688 29H72.8594C72.7656 29 72.7188 28.9479 72.7188 28.8438V10.5938H68.5625C68.4583 10.5938 68.4062 10.5417 68.4062 10.4375L68.4375 6.85938C68.4375 6.77604 68.4792 6.73438 68.5625 6.73438H80.7188C80.8333 6.73438 80.8906 6.77604 80.8906 6.85938V10.4375C80.8906 10.5417 80.849 10.5938 80.7656 10.5938H76.5625L76.5938 28.8438C76.5938 28.9479 76.5521 29 76.4688 29ZM86.2344 29H82.6094C82.5052 29 82.4531 28.9479 82.4531 28.8438L82.4844 6.85938C82.4844 6.77604 82.526 6.73438 82.6094 6.73438H86.2031C86.2865 6.73438 86.3281 6.77604 86.3281 6.85938L86.3594 28.8438C86.3594 28.9479 86.3177 29 86.2344 29ZM96 29H92.3906C92.2969 29 92.25 28.9479 92.25 28.8438V10.5938H88.0938C87.9896 10.5938 87.9375 10.5417 87.9375 10.4375L87.9688 6.85938C87.9688 6.77604 88.0104 6.73438 88.0938 6.73438H100.25C100.365 6.73438 100.422 6.77604 100.422 6.85938V10.4375C100.422 10.5417 100.38 10.5938 100.297 10.5938H96.0938L96.125 28.8438C96.125 28.9479 96.0833 29 96 29ZM107.875 29.3125C106.75 29.3125 105.708 29.0208 104.75 28.4375C103.792 27.8542 103.026 27.0729 102.453 26.0938C101.891 25.1042 101.609 24.026 101.609 22.8594L101.672 6.85938C101.672 6.77604 101.714 6.73438 101.797 6.73438H105.391C105.474 6.73438 105.516 6.77604 105.516 6.85938V22.8594C105.516 23.5781 105.745 24.1927 106.203 24.7031C106.661 25.2031 107.219 25.4531 107.875 25.4531C108.562 25.4531 109.135 25.2031 109.594 24.7031C110.052 24.1927 110.281 23.5781 110.281 22.8594V6.85938C110.281 6.77604 110.323 6.73438 110.406 6.73438H114C114.083 6.73438 114.125 6.77604 114.125 6.85938L114.188 22.8594C114.188 24.0365 113.906 25.1198 113.344 26.1094C112.771 27.0885 112.01 27.8698 111.062 28.4531C110.115 29.026 109.052 29.3125 107.875 29.3125ZM122.594 28.9688L116.859 29C116.755 29 116.703 28.9479 116.703 28.8438L116.766 6.85938C116.766 6.77604 116.807 6.73438 116.891 6.73438L122.875 6.70312C124.062 6.67188 125.135 6.94271 126.094 7.51562C127.062 8.08854 127.833 8.86458 128.406 9.84375C128.99 10.8125 129.281 11.8854 129.281 13.0625V22.25C129.281 23.4792 128.984 24.6042 128.391 25.625C127.786 26.6354 126.984 27.4427 125.984 28.0469C124.984 28.6406 123.854 28.9479 122.594 28.9688ZM122.875 10.5312L120.641 10.5625L120.609 25.0625H122.594C123.385 25.0625 124.052 24.7865 124.594 24.2344C125.135 23.6823 125.406 23.0208 125.406 22.25V13.0312C125.406 12.3542 125.156 11.7656 124.656 11.2656C124.156 10.7552 123.562 10.5104 122.875 10.5312ZM142.266 29H131.922C131.839 29 131.797 28.9479 131.797 28.8438L131.828 6.85938C131.828 6.77604 131.87 6.73438 131.953 6.73438H142.234C142.318 6.73438 142.359 6.78646 142.359 6.89062V10.4688C142.359 10.5521 142.318 10.5938 142.234 10.5938H135.672V15.5938H142.234C142.318 15.5938 142.359 15.6354 142.359 15.7188L142.391 19.3438C142.391 19.4271 142.349 19.4688 142.266 19.4688H135.672V25.0625H142.266C142.349 25.0625 142.391 25.1146 142.391 25.2188V28.875C142.391 28.9583 142.349 29 142.266 29Z" fill="black"/>
</svg>
