<svg width="60" height="60" viewBox="0 0 60 60" fill="none" xmlns="http://www.w3.org/2000/svg">
<circle cx="30" cy="30" r="28.5" fill="#77AFF4" stroke="#335681" stroke-width="3"/>
<circle cx="30" cy="30" r="19" fill="white"/>
<path d="M19.21 28.6214C19.21 29.7961 19.4106 30.9657 19.8119 32.1302C20.2132 33.2948 20.8034 34.3678 21.5825 35.3495C21.7775 35.5845 21.875 35.857 21.875 36.1671C21.875 36.4773 21.7667 36.7387 21.55 36.9515C21.3333 37.1642 21.0681 37.2603 20.7544 37.2398C20.4407 37.2193 20.1859 37.0911 19.99 36.8553C18.9933 35.6379 18.2458 34.3349 17.7475 32.9466C17.2492 31.5582 17 30.1165 17 28.6214C17 27.1262 17.2492 25.6845 17.7475 24.2961C18.2458 22.9078 18.9933 21.6049 19.99 20.3874C20.185 20.1524 20.4398 20.0243 20.7544 20.0029C21.069 19.9816 21.3342 20.0777 21.55 20.2913C21.7658 20.5049 21.8741 20.7663 21.875 21.0756C21.8759 21.3849 21.7784 21.6574 21.5825 21.8932C20.8025 22.8757 20.2123 23.9492 19.8119 25.1137C19.4115 26.2783 19.2109 27.4475 19.21 28.6214ZM23.5 28.6214C23.5 29.2408 23.5975 29.8709 23.7925 30.5116C23.9875 31.1524 24.3017 31.7505 24.735 32.3058C24.9083 32.5408 24.995 32.8078 24.995 33.1068C24.995 33.4058 24.8867 33.6621 24.67 33.8757C24.4533 34.0893 24.1933 34.191 23.89 34.1807C23.5867 34.1705 23.3375 34.0475 23.1425 33.8116C22.5358 33.0427 22.0752 32.2153 21.7606 31.3293C21.446 30.4433 21.2891 29.5407 21.29 28.6214C21.2909 27.7021 21.4482 26.7994 21.7619 25.9134C22.0756 25.0275 22.5358 24.2 23.1425 23.4311C23.3375 23.1961 23.5867 23.0731 23.89 23.062C24.1933 23.0509 24.4533 23.1525 24.67 23.367C24.8867 23.5814 24.9898 23.8377 24.9794 24.1359C24.969 24.4341 24.8767 24.7011 24.7025 24.9369C24.2908 25.4709 23.9875 26.0531 23.7925 26.6836C23.5975 27.3142 23.5 27.9601 23.5 28.6214ZM26.9775 41.4369L26.3925 43.167C26.3058 43.4019 26.1542 43.5997 25.9375 43.7603C25.7208 43.921 25.4825 44.0008 25.2225 44C24.7892 44 24.4533 43.8347 24.215 43.504C23.9767 43.1734 23.9225 42.8047 24.0525 42.3981L27.8875 31.0243C27.5408 30.7252 27.2644 30.3728 27.0581 29.967C26.8518 29.5612 26.7491 29.1126 26.75 28.6214C26.75 27.7243 27.0642 26.966 27.6925 26.3466C28.3208 25.7272 29.09 25.4175 30 25.4175C30.91 25.4175 31.6792 25.7272 32.3075 26.3466C32.9358 26.966 33.25 27.7243 33.25 28.6214C33.25 29.1126 33.1469 29.5612 32.9406 29.967C32.7343 30.3728 32.4583 30.7252 32.1125 31.0243L35.9475 42.3981C36.0775 42.7825 36.029 43.1456 35.8019 43.4874C35.5748 43.8291 35.2442 44 34.81 44C34.55 44 34.3065 43.9252 34.0794 43.7757C33.8523 43.6262 33.695 43.4233 33.6075 43.167L33.055 41.4369H26.9775ZM27.8225 38.8738H32.1775L30 32.466L27.8225 38.8738ZM36.5 28.6214C36.5 28.0019 36.4025 27.3718 36.2075 26.7311C36.0125 26.0903 35.6983 25.4922 35.265 24.9369C35.0917 24.7019 35.005 24.435 35.005 24.1359C35.005 23.8369 35.1133 23.5806 35.33 23.367C35.5467 23.1534 35.8119 23.0517 36.1256 23.062C36.4393 23.0722 36.6833 23.1953 36.8575 23.4311C37.4425 24.2 37.8867 25.0279 38.19 25.9147C38.4933 26.8016 38.6667 27.7038 38.71 28.6214C38.71 29.5398 38.5527 30.4424 38.2381 31.3293C37.9235 32.2161 37.4633 33.0436 36.8575 33.8116C36.6625 34.0466 36.4133 34.1696 36.11 34.1807C35.8067 34.1918 35.5467 34.0902 35.33 33.8757C35.1133 33.6613 35.0102 33.405 35.0206 33.1068C35.031 32.8086 35.1233 32.5416 35.2975 32.3058C35.7092 31.7718 36.0125 31.19 36.2075 30.5603C36.4025 29.9307 36.5 29.2843 36.5 28.6214ZM40.79 28.6214C40.79 27.4466 40.5898 26.277 40.1894 25.1125C39.789 23.948 39.1984 22.8749 38.4175 21.8932C38.2225 21.6583 38.125 21.3857 38.125 21.0756C38.125 20.7654 38.2333 20.504 38.45 20.2913C38.6667 20.0785 38.9323 19.9824 39.2469 20.0029C39.5615 20.0234 39.8159 20.1516 40.01 20.3874C41.0067 21.6049 41.7542 22.9078 42.2525 24.2961C42.7508 25.6845 43 27.1262 43 28.6214C43 30.1165 42.7673 31.5582 42.3019 32.9466C41.8365 34.3349 41.0834 35.6379 40.0425 36.8553C39.8258 37.0903 39.5658 37.224 39.2625 37.2565C38.9592 37.2889 38.6883 37.1873 38.45 36.9515C38.2333 36.7379 38.125 36.4764 38.125 36.1671C38.125 35.8579 38.2225 35.5853 38.4175 35.3495C39.1975 34.367 39.7881 33.2939 40.1894 32.1302C40.5907 30.9666 40.7909 29.797 40.79 28.6214Z" fill="#335681"/>
</svg>
